# xmcd CD database file
#
# Track frame offsets:
#	150
#	8272
#	31040
#	47300
#	72197
#	95977
#	121065
#	133907
#	159625
#	177427
#
# Disc length: 2686 seconds
#
# Revision: 0
# Processed by: cddbd v1.5PL3 Copyright (c) Steve Scherf et al.
# Submitted via: CDex 1.51
#
DISCID=770a7c0a
DTITLE=椿屋四重奏 - 深紅なる肖像
DYEAR=2004
DGENRE=Rock
TTITLE0=ぬけがら
TTITLE1=終列車
TTITLE2=成れの果て
TTITLE3=硝子玉
TTITLE4=春雨よ
TTITLE5=道づれ
TTITLE6=空中分解
TTITLE7=小春日和
TTITLE8=一刹那
TTITLE9=嵐が丘
EXTD=YEAR: 2004
EXTT0=
EXTT1=
EXTT2=
EXTT3=
EXTT4=
EXTT5=
EXTT6=
EXTT7=
EXTT8=
EXTT9=
PLAYORDER=
